<?xml version="1.0" encoding="UTF-8"?>
<svg id="Layer_1" xmlns="http://www.w3.org/2000/svg" version="1.1" viewBox="0 0 506 468">
  <!-- Generator: Adobe Illustrator 29.7.1, SVG Export Plug-In . SVG Version: 2.1.1 Build 8)  -->
  <defs>
    <style>
      .st0 {
        fill: #fff;
      }
    </style>
  </defs>
  <path d="M502.61,142.38c-1.13-10.5-9.19-14.97-17.8-18.88,16.45-29.85,22.83-66.2,13.35-99.5-3.99-14.04-17.53-22.09-31.44-15.57-8.38,3.92-10.74,12.92-15.81,19.85-13.4,18.37-29.89,34.59-48.82,47.27-.46,0-.7-.98-1.16-1.9-.09-.17-.18-.33-.28-.49-.15-.24-.33-.45-.53-.62-15.04-13.06-29.03-25.63-46.18-36.07C223.31-42.97,53.18,24.69,11.81,170.61c-42.14,148.62,70.23,293.67,222.37,295.18h2.97c120.83-1.39,225.84-103.67,228.03-225.14,23.64-24.26,41.14-63.96,37.43-98.27ZM128.93,340.19l-46.3,20.59,11.92-42.89c-39.86-35.74-43.68-96.95-10.89-138.82,36.21-46.23,108.74-54.24,153.96-16.35,3.57,2.99,20.51,19.42,20.15,23.1-24.3,41.38-11.43,92.27-31.33,135.04-6.61,14.19-9.39,16.27-24.41,21.16-24.16,7.84-49.28,6.25-73.1-1.82ZM329.28,227.07c31.65-21.93,71.23-26.43,105.01-44.06,17.45-9.1,33.5-21.4,46.53-36.17,1.38,58.54-39.42,94.28-91.36,111.2-24.57,8.01-53.42,10.67-73.06,28.96l20.42-4.34c31.61-2.33,64.72.97,93.48-14.98-9.1,26.12-34.03,46.67-60.41,53.98-23.78,6.58-47.63,3.73-71.52,8.72-34.37,9.96-57.91,42.48-94.89,46.75,24.48-15.39,41.5-38.38,49.78-66.11,11.17-37.34,4.41-78.54,23-113.69,22.89-43.3,73.84-62.34,113.36-86.73,33.99-20.99,66.25-46.76,86.75-81.62,5.23,13.96,5.47,30.07,3.18,44.76-6.43,41.3-36.15,72.76-70.12,94.31-23.8,15.09-53.3,26.12-72.26,47.59-1.03,1.18-8.62,10.67-7.88,11.42Z"/>
  <path class="st0" d="M480.81,146.84c1.38,58.54-39.42,94.28-91.36,111.2-24.57,8.01-53.42,10.67-73.06,28.96l20.42-4.34c31.61-2.33,64.72.97,93.48-14.98-9.1,26.12-34.03,46.67-60.41,53.98-23.78,6.58-47.63,3.73-71.52,8.72-34.37,9.96-57.91,42.48-94.89,46.75,24.48-15.39,41.5-38.38,49.78-66.11,11.17-37.34,4.41-78.54,23-113.69,22.89-43.3,73.84-62.34,113.36-86.73,33.99-20.99,66.25-46.76,86.75-81.62,5.23,13.96,5.47,30.07,3.18,44.76-6.43,41.3-36.15,72.76-70.12,94.31-23.8,15.09-53.3,26.12-72.26,47.59-1.03,1.18-8.62,10.67-7.88,11.42,31.65-21.93,71.23-26.43,105.01-44.06,17.45-9.1,33.5-21.4,46.53-36.17Z"/>
  <path class="st0" d="M257.76,185.81c-24.3,41.38-11.43,92.27-31.33,135.04-6.61,14.19-9.39,16.27-24.41,21.16-24.16,7.84-49.28,6.25-73.1-1.82l-46.3,20.59,11.92-42.89c-39.86-35.74-43.68-96.95-10.89-138.82,36.21-46.23,108.74-54.24,153.96-16.35,3.57,2.99,20.51,19.42,20.15,23.1Z"/>
</svg>